TITLE "121.100, flac"
FILE "121.100.flac" WAVE

TRACK 01 AUDIO
TITLE "2020.02.06-05:59.00:352474"
INDEX 01 00:00:01

TRACK 02 AUDIO
TITLE "2020.02.06-05:59.37:412629"
INDEX 00 00:01:61
INDEX 01 00:37:06

TRACK 03 AUDIO
TITLE "2020.02.06-05:59.44:932558"
INDEX 00 00:43:63
INDEX 01 00:44:45

TRACK 04 AUDIO
TITLE "2020.02.06-05:59.52:192501"
INDEX 00 00:51:15
INDEX 01 00:51:64

TRACK 05 AUDIO
TITLE "2020.02.06-06:00.04:572547"
INDEX 00 00:59:04
INDEX 01 01:04:18

TRACK 06 AUDIO
TITLE "2020.02.06-06:00.07:172523"
INDEX 00 01:06:24
INDEX 01 01:06:63

TRACK 07 AUDIO
TITLE "2020.02.06-06:01.15:452374"
INDEX 00 01:11:09
INDEX 01 02:15:09

TRACK 08 AUDIO
TITLE "2020.02.06-06:03.49:412527"
INDEX 00 02:39:28
INDEX 01 04:49:06

TRACK 09 AUDIO
TITLE "2020.02.06-06:05.34:872518"
INDEX 00 04:58:24
INDEX 01 06:34:40

TRACK 10 AUDIO
TITLE "2020.02.06-06:06.08:192902"
INDEX 00 06:50:40
INDEX 01 07:07:64

TRACK 11 AUDIO
TITLE "2020.02.06-06:07.09:532439"
INDEX 00 07:26:54
INDEX 01 08:09:15

TRACK 12 AUDIO
TITLE "2020.02.06-06:07.31:975606"
INDEX 00 08:16:52
INDEX 01 08:31:48

TRACK 13 AUDIO
TITLE "2020.02.06-06:08.17:992486"
INDEX 00 08:41:66
INDEX 01 09:17:49

TRACK 14 AUDIO
TITLE "2020.02.06-06:08.51:652513"
INDEX 00 09:25:40
INDEX 01 09:51:24

TRACK 15 AUDIO
TITLE "2020.02.06-06:09.02:896488"
INDEX 00 10:02:31
INDEX 01 10:02:42

TRACK 16 AUDIO
TITLE "2020.02.06-06:09.11:272880"
INDEX 00 10:08:63
INDEX 01 10:10:70

TRACK 17 AUDIO
TITLE "2020.02.06-06:11.37:872523"
INDEX 00 10:18:39
INDEX 01 12:37:40

TRACK 18 AUDIO
TITLE "2020.02.06-06:11.56:232813"
INDEX 00 12:53:27
INDEX 01 12:55:67

TRACK 19 AUDIO
TITLE "2020.02.06-06:14.01:337037"
INDEX 00 13:03:19
INDEX 01 15:01:00

TRACK 20 AUDIO
TITLE "2020.02.06-06:14.25:212453"
INDEX 00 15:10:09
INDEX 01 15:24:66

TRACK 21 AUDIO
TITLE "2020.02.06-06:14.48:217380"
INDEX 00 15:35:45
INDEX 01 15:47:66

TRACK 22 AUDIO
TITLE "2020.02.06-06:15.08:213135"
INDEX 00 16:01:11
INDEX 01 16:07:66

TRACK 23 AUDIO
TITLE "2020.02.06-06:15.13:572553"
INDEX 00 16:12:55
INDEX 01 16:13:18

TRACK 24 AUDIO
TITLE "2020.02.06-06:15.34:152429"
INDEX 00 16:17:42
INDEX 01 16:33:61

TRACK 25 AUDIO
TITLE "2020.02.06-06:15.42:272595"
INDEX 00 16:40:55
INDEX 01 16:41:70

TRACK 26 AUDIO
TITLE "2020.02.06-06:16.15:952509"
INDEX 00 16:52:66
INDEX 01 17:15:46

TRACK 27 AUDIO
TITLE "2020.02.06-06:16.23:772513"
INDEX 00 17:21:31
INDEX 01 17:23:33

TRACK 28 AUDIO
TITLE "2020.02.06-06:16.42:512425"
INDEX 00 17:31:49
INDEX 01 17:42:13

TRACK 29 AUDIO
TITLE "2020.02.06-06:17.00:232443"
INDEX 00 17:50:19
INDEX 01 17:59:67

TRACK 30 AUDIO
TITLE "2020.02.06-06:17.30:854129"
INDEX 00 18:10:09
INDEX 01 18:30:39

TRACK 31 AUDIO
TITLE "2020.02.06-06:17.41:892505"
INDEX 00 18:38:39
INDEX 01 18:41:42

TRACK 32 AUDIO
TITLE "2020.02.06-06:18.05:772484"
INDEX 00 18:52:27
INDEX 01 19:05:33

TRACK 33 AUDIO
TITLE "2020.02.06-06:18.11:332440"
INDEX 00 19:10:70
INDEX 01 19:11:00

TRACK 34 AUDIO
TITLE "2020.02.06-06:19.46:532743"
INDEX 00 19:14:46
INDEX 01 20:46:15

TRACK 35 AUDIO
TITLE "2020.02.06-06:19.59:172594"
INDEX 00 20:57:13
INDEX 01 20:58:63

TRACK 36 AUDIO
TITLE "2020.02.06-06:20.30:592360"
INDEX 00 21:09:36
INDEX 01 21:30:19

TRACK 37 AUDIO
TITLE "2020.02.06-06:20.39:592610"
INDEX 00 21:37:36
INDEX 01 21:39:19

TRACK 38 AUDIO
TITLE "2020.02.06-06:21.14:152459"
INDEX 00 21:45:72
INDEX 01 22:13:61

TRACK 39 AUDIO
TITLE "2020.02.06-06:21.18:732393"
INDEX 00 22:17:73
INDEX 01 22:18:30

TRACK 40 AUDIO
TITLE "2020.02.06-06:23.35:552417"
INDEX 00 22:23:07
INDEX 01 24:35:16

TRACK 41 AUDIO
TITLE "2020.02.06-06:24.34:573763"
INDEX 00 24:49:39
INDEX 01 25:34:18

TRACK 42 AUDIO
TITLE "2020.02.06-06:25.30:672441"
INDEX 00 25:42:18
INDEX 01 26:30:25

TRACK 43 AUDIO
TITLE "2020.02.06-06:25.43:632855"
INDEX 00 26:40:57
INDEX 01 26:43:22

TRACK 44 AUDIO
TITLE "2020.02.06-06:25.56:872624"
INDEX 00 26:56:22
INDEX 01 26:56:40

TRACK 45 AUDIO
TITLE "2020.02.06-06:26.58:592649"
INDEX 00 27:10:52
INDEX 01 27:58:19

TRACK 46 AUDIO
TITLE "2020.02.06-06:27.15:112485"
INDEX 00 28:14:16
INDEX 01 28:14:58

TRACK 47 AUDIO
TITLE "2020.02.06-06:27.19:392622"
INDEX 00 28:18:70
INDEX 01 28:19:04

TRACK 48 AUDIO
TITLE "2020.02.06-06:27.24:294407"
INDEX 00 28:23:63
INDEX 01 28:23:72

TRACK 49 AUDIO
TITLE "2020.02.06-06:28.13:412593"
INDEX 00 28:32:02
INDEX 01 29:13:06

TRACK 50 AUDIO
TITLE "2020.02.06-06:28.17:172606"
INDEX 00 29:16:57
INDEX 01 29:16:63

TRACK 51 AUDIO
TITLE "2020.02.06-06:28.51:552764"
INDEX 00 29:20:43
INDEX 01 29:51:16

TRACK 52 AUDIO
TITLE "2020.02.06-06:29.05:052485"
INDEX 00 30:02:25
INDEX 01 30:04:54

TRACK 53 AUDIO
TITLE "2020.02.06-06:30.06:392561"
INDEX 00 30:17:40
INDEX 01 31:06:04

TRACK 54 AUDIO
TITLE "2020.02.06-06:30.51:774599"
INDEX 00 31:16:55
INDEX 01 31:51:33

TRACK 55 AUDIO
TITLE "2020.02.06-06:32.37:812454"
INDEX 00 32:00:30
INDEX 01 33:37:36

TRACK 56 AUDIO
TITLE "2020.02.06-06:33.38:712502"
INDEX 00 33:48:46
INDEX 01 34:38:28

TRACK 57 AUDIO
TITLE "2020.02.06-06:34.40:992413"
INDEX 00 34:46:67
INDEX 01 35:40:49

TRACK 58 AUDIO
TITLE "2020.02.06-06:36.28:412621"
INDEX 00 35:51:06
INDEX 01 37:28:06

TRACK 59 AUDIO
TITLE "2020.02.06-06:37.32:657524"
INDEX 00 37:39:57
INDEX 01 38:32:24

TRACK 60 AUDIO
TITLE "2020.02.06-06:37.37:272616"
INDEX 00 38:36:60
INDEX 01 38:36:70

TRACK 61 AUDIO
TITLE "2020.02.06-06:37.43:797395"
INDEX 00 38:42:09
INDEX 01 38:43:35

TRACK 62 AUDIO
TITLE "2020.02.06-06:38.43:492680"
INDEX 00 38:53:36
INDEX 01 39:43:12

TRACK 63 AUDIO
TITLE "2020.02.06-06:38.47:572771"
INDEX 00 39:47:12
INDEX 01 39:47:18

TRACK 64 AUDIO
TITLE "2020.02.06-06:38.51:072443"
INDEX 00 39:50:39
INDEX 01 39:50:55

TRACK 65 AUDIO
TITLE "2020.02.06-06:40.29:272350"
INDEX 00 40:02:66
INDEX 01 41:28:70

TRACK 66 AUDIO
TITLE "2020.02.06-06:40.45:797553"
INDEX 00 41:43:42
INDEX 01 41:45:35

TRACK 67 AUDIO
TITLE "2020.02.06-06:40.51:072349"
INDEX 00 41:50:20
INDEX 01 41:50:55

TRACK 68 AUDIO
TITLE "2020.02.06-06:40.56:292509"
INDEX 00 41:55:49
INDEX 01 41:55:72

TRACK 69 AUDIO
TITLE "2020.02.06-06:41.07:132925"
INDEX 00 42:06:40
INDEX 01 42:06:60

TRACK 70 AUDIO
TITLE "2020.02.06-06:42.11:535066"
INDEX 00 42:11:30
INDEX 01 43:11:15

TRACK 71 AUDIO
TITLE "2020.02.06-06:42.19:914090"
INDEX 00 43:19:08
INDEX 01 43:19:44

TRACK 72 AUDIO
TITLE "2020.02.06-06:42.34:012493"
INDEX 00 43:31:27
INDEX 01 43:33:51

TRACK 73 AUDIO
TITLE "2020.02.06-06:43.43:732572"
INDEX 00 43:55:28
INDEX 01 44:43:30

TRACK 74 AUDIO
TITLE "2020.02.06-06:43.48:132518"
INDEX 00 44:47:57
INDEX 01 44:47:60

TRACK 75 AUDIO
TITLE "2020.02.06-06:44.04:932352"
INDEX 00 44:52:25
INDEX 01 45:04:45

TRACK 76 AUDIO
TITLE "2020.02.06-06:44.16:012347"
INDEX 00 45:15:21
INDEX 01 45:15:51

TRACK 77 AUDIO
TITLE "2020.02.06-06:44.39:192576"
INDEX 00 45:19:63
INDEX 01 45:38:64

TRACK 78 AUDIO
TITLE "2020.02.06-06:45.01:592537"
INDEX 00 45:46:73
INDEX 01 46:01:19

TRACK 79 AUDIO
TITLE "2020.02.06-06:45.41:172450"
INDEX 00 46:03:04
INDEX 01 46:40:63

TRACK 80 AUDIO
TITLE "2020.02.06-06:46.34:572464"
INDEX 00 47:01:40
INDEX 01 47:34:18

TRACK 81 AUDIO
TITLE "2020.02.06-06:46.39:432530"
INDEX 00 47:38:42
INDEX 01 47:39:07

TRACK 82 AUDIO
TITLE "2020.02.06-06:46.55:053533"
INDEX 00 47:43:69
INDEX 01 47:54:54

TRACK 83 AUDIO
TITLE "2020.02.06-06:47.12:753761"
INDEX 00 48:04:27
INDEX 01 48:12:31

TRACK 84 AUDIO
TITLE "2020.02.06-06:47.46:415488"
INDEX 00 48:21:54
INDEX 01 48:46:06

TRACK 85 AUDIO
TITLE "2020.02.06-06:48.38:192573"
INDEX 00 48:56:17
INDEX 01 49:37:64

TRACK 86 AUDIO
TITLE "2020.02.06-06:48.57:036616"
INDEX 00 49:46:03
INDEX 01 49:56:53

TRACK 87 AUDIO
TITLE "2020.02.06-06:49.04:632920"
INDEX 00 50:02:11
INDEX 01 50:04:22

TRACK 88 AUDIO
TITLE "2020.02.06-06:49.16:275316"
INDEX 00 50:14:28
INDEX 01 50:15:71

TRACK 89 AUDIO
TITLE "2020.02.06-06:50.04:592486"
INDEX 00 50:25:60
INDEX 01 51:04:19

TRACK 90 AUDIO
TITLE "2020.02.06-06:50.10:152456"
INDEX 00 51:09:06
INDEX 01 51:09:61

TRACK 91 AUDIO
TITLE "2020.02.06-06:50.56:892523"
INDEX 00 51:22:49
INDEX 01 51:56:42

TRACK 92 AUDIO
TITLE "2020.02.06-06:52.25:652346"
INDEX 00 52:05:06
INDEX 01 53:25:24

TRACK 93 AUDIO
TITLE "2020.02.06-06:52.59:272557"
INDEX 00 53:35:63
INDEX 01 53:58:70

TRACK 94 AUDIO
TITLE "2020.02.06-06:53.14:692498"
INDEX 00 54:07:37
INDEX 01 54:14:27

TRACK 95 AUDIO
TITLE "2020.02.06-06:55.10:292484"
INDEX 00 54:24:43
INDEX 01 56:09:72

TRACK 96 AUDIO
TITLE "2020.02.06-06:55.15:752647"
INDEX 00 56:14:48
INDEX 01 56:15:31

TRACK 97 AUDIO
TITLE "2020.02.06-06:55.32:332523"
INDEX 00 56:21:54
INDEX 01 56:32:00

TRACK 98 AUDIO
TITLE "2020.02.06-06:55.36:572564"
INDEX 00 56:36:03
INDEX 01 56:36:18

TRACK 99 AUDIO
TITLE "2020.02.06-06:56.31:392644"
INDEX 00 56:39:72
INDEX 01 57:31:04

TRACK 100 AUDIO
TITLE "2020.02.06-06:56.58:372484"
INDEX 00 57:41:39
INDEX 01 57:58:03

TRACK 101 AUDIO
TITLE "2020.02.06-06:57.42:812422"
INDEX 00 58:05:27
INDEX 01 58:42:36

TRACK 102 AUDIO
TITLE "2020.02.06-06:58.42:792686"
INDEX 00 58:52:57
INDEX 01 59:42:34

TRACK 103 AUDIO
TITLE "2020.02.06-07:00.02:792467"
INDEX 00 59:54:61
INDEX 01 61:02:34

TRACK 104 AUDIO
TITLE "2020.02.06-07:00.09:176489"
INDEX 00 61:08:46
INDEX 01 61:08:63

TRACK 105 AUDIO
TITLE "2020.02.06-07:00.18:974906"
INDEX 00 61:17:35
INDEX 01 61:18:48

TRACK 106 AUDIO
TITLE "2020.02.06-07:00.58:412759"
INDEX 00 61:28:23
INDEX 01 61:58:06

